<mxfile host="Electron" agent="Mozilla/5.0 (Windows NT 10.0; Win64; x64) AppleWebKit/537.36 (KHTML, like Gecko) draw.io/25.0.2 Chrome/128.0.6613.186 Electron/32.2.5 Safari/537.36" version="25.0.2">
  <diagram name="Страница — 1" id="J1kC0_Oe8Ekz8Qwozpw1">
    <mxGraphModel dx="1834" dy="844" grid="1" gridSize="10" guides="1" tooltips="1" connect="1" arrows="1" fold="1" page="0" pageScale="1" pageWidth="827" pageHeight="1169" math="0" shadow="0">
      <root>
        <mxCell id="0" />
        <mxCell id="1" parent="0" />
        <mxCell id="ctl0Pf9ggWWuzBs3fEdE-3" value="А0" style="swimlane;whiteSpace=wrap;html=1;flipV=1;align=left;" parent="1" vertex="1">
          <mxGeometry x="-80" y="150" width="870" height="530" as="geometry" />
        </mxCell>
        <mxCell id="t7neWUMmeDFfK0kkXuAY-13" style="edgeStyle=orthogonalEdgeStyle;rounded=0;orthogonalLoop=1;jettySize=auto;html=1;exitX=1;exitY=0.5;exitDx=0;exitDy=0;entryX=0;entryY=0.25;entryDx=0;entryDy=0;" parent="ctl0Pf9ggWWuzBs3fEdE-3" source="ctl0Pf9ggWWuzBs3fEdE-4" target="t7neWUMmeDFfK0kkXuAY-12" edge="1">
          <mxGeometry relative="1" as="geometry" />
        </mxCell>
        <mxCell id="ctl0Pf9ggWWuzBs3fEdE-4" value="Обробити замовлення" style="rounded=0;whiteSpace=wrap;html=1;" parent="ctl0Pf9ggWWuzBs3fEdE-3" vertex="1">
          <mxGeometry x="380" y="115" width="120" height="60" as="geometry" />
        </mxCell>
        <mxCell id="t7neWUMmeDFfK0kkXuAY-4" style="edgeStyle=orthogonalEdgeStyle;rounded=0;orthogonalLoop=1;jettySize=auto;html=1;exitX=1;exitY=0.5;exitDx=0;exitDy=0;entryX=0;entryY=0.75;entryDx=0;entryDy=0;" parent="ctl0Pf9ggWWuzBs3fEdE-3" source="ctl0Pf9ggWWuzBs3fEdE-5" target="ctl0Pf9ggWWuzBs3fEdE-4" edge="1">
          <mxGeometry relative="1" as="geometry" />
        </mxCell>
        <mxCell id="ctl0Pf9ggWWuzBs3fEdE-5" value="Дані про склад" style="rounded=0;whiteSpace=wrap;html=1;" parent="ctl0Pf9ggWWuzBs3fEdE-3" vertex="1">
          <mxGeometry x="157" y="340" width="120" height="60" as="geometry" />
        </mxCell>
        <mxCell id="t7neWUMmeDFfK0kkXuAY-3" style="edgeStyle=orthogonalEdgeStyle;rounded=0;orthogonalLoop=1;jettySize=auto;html=1;exitX=1;exitY=0.5;exitDx=0;exitDy=0;entryX=0;entryY=0.25;entryDx=0;entryDy=0;" parent="ctl0Pf9ggWWuzBs3fEdE-3" source="ctl0Pf9ggWWuzBs3fEdE-12" target="ctl0Pf9ggWWuzBs3fEdE-4" edge="1">
          <mxGeometry relative="1" as="geometry" />
        </mxCell>
        <mxCell id="ctl0Pf9ggWWuzBs3fEdE-12" value="Отримати замовлення" style="rounded=0;whiteSpace=wrap;html=1;" parent="ctl0Pf9ggWWuzBs3fEdE-3" vertex="1">
          <mxGeometry x="157" y="100" width="120" height="60" as="geometry" />
        </mxCell>
        <mxCell id="ctl0Pf9ggWWuzBs3fEdE-20" style="edgeStyle=orthogonalEdgeStyle;rounded=0;orthogonalLoop=1;jettySize=auto;html=1;exitX=1;exitY=0.5;exitDx=0;exitDy=0;entryX=0;entryY=0.5;entryDx=0;entryDy=0;" parent="ctl0Pf9ggWWuzBs3fEdE-3" source="ctl0Pf9ggWWuzBs3fEdE-15" target="ctl0Pf9ggWWuzBs3fEdE-12" edge="1">
          <mxGeometry relative="1" as="geometry" />
        </mxCell>
        <mxCell id="ctl0Pf9ggWWuzBs3fEdE-22" style="edgeStyle=orthogonalEdgeStyle;rounded=0;orthogonalLoop=1;jettySize=auto;html=1;exitX=1;exitY=0.5;exitDx=0;exitDy=0;entryX=0;entryY=0.5;entryDx=0;entryDy=0;" parent="ctl0Pf9ggWWuzBs3fEdE-3" source="ctl0Pf9ggWWuzBs3fEdE-15" target="ctl0Pf9ggWWuzBs3fEdE-5" edge="1">
          <mxGeometry relative="1" as="geometry">
            <Array as="points">
              <mxPoint x="140" y="130" />
              <mxPoint x="140" y="370" />
            </Array>
          </mxGeometry>
        </mxCell>
        <mxCell id="ctl0Pf9ggWWuzBs3fEdE-15" value="Замовлення клієнта" style="text;html=1;align=center;verticalAlign=middle;whiteSpace=wrap;rounded=0;" parent="ctl0Pf9ggWWuzBs3fEdE-3" vertex="1">
          <mxGeometry y="115" width="134" height="30" as="geometry" />
        </mxCell>
        <mxCell id="ctl0Pf9ggWWuzBs3fEdE-18" style="edgeStyle=orthogonalEdgeStyle;rounded=0;orthogonalLoop=1;jettySize=auto;html=1;exitX=0.5;exitY=1;exitDx=0;exitDy=0;" parent="ctl0Pf9ggWWuzBs3fEdE-3" source="ctl0Pf9ggWWuzBs3fEdE-16" target="ctl0Pf9ggWWuzBs3fEdE-12" edge="1">
          <mxGeometry relative="1" as="geometry" />
        </mxCell>
        <mxCell id="ctl0Pf9ggWWuzBs3fEdE-16" value="Форма прийняття замовлення" style="text;html=1;align=center;verticalAlign=middle;whiteSpace=wrap;rounded=0;" parent="ctl0Pf9ggWWuzBs3fEdE-3" vertex="1">
          <mxGeometry x="110" y="50" width="214" height="30" as="geometry" />
        </mxCell>
        <mxCell id="ctl0Pf9ggWWuzBs3fEdE-23" style="edgeStyle=orthogonalEdgeStyle;rounded=0;orthogonalLoop=1;jettySize=auto;html=1;exitX=0.5;exitY=0;exitDx=0;exitDy=0;entryX=0.5;entryY=1;entryDx=0;entryDy=0;" parent="ctl0Pf9ggWWuzBs3fEdE-3" source="ctl0Pf9ggWWuzBs3fEdE-21" target="ctl0Pf9ggWWuzBs3fEdE-5" edge="1">
          <mxGeometry relative="1" as="geometry" />
        </mxCell>
        <mxCell id="ctl0Pf9ggWWuzBs3fEdE-21" value="Працівники складу" style="text;html=1;align=center;verticalAlign=middle;whiteSpace=wrap;rounded=0;" parent="ctl0Pf9ggWWuzBs3fEdE-3" vertex="1">
          <mxGeometry x="145" y="465" width="144" height="30" as="geometry" />
        </mxCell>
        <mxCell id="t7neWUMmeDFfK0kkXuAY-2" style="edgeStyle=orthogonalEdgeStyle;rounded=0;orthogonalLoop=1;jettySize=auto;html=1;exitX=0.5;exitY=1;exitDx=0;exitDy=0;entryX=0.5;entryY=0;entryDx=0;entryDy=0;" parent="ctl0Pf9ggWWuzBs3fEdE-3" source="t7neWUMmeDFfK0kkXuAY-1" target="ctl0Pf9ggWWuzBs3fEdE-5" edge="1">
          <mxGeometry relative="1" as="geometry" />
        </mxCell>
        <mxCell id="t7neWUMmeDFfK0kkXuAY-1" value="База даних складу" style="text;html=1;align=center;verticalAlign=middle;whiteSpace=wrap;rounded=0;" parent="ctl0Pf9ggWWuzBs3fEdE-3" vertex="1">
          <mxGeometry x="150.5" y="290" width="133" height="30" as="geometry" />
        </mxCell>
        <mxCell id="t7neWUMmeDFfK0kkXuAY-8" style="edgeStyle=orthogonalEdgeStyle;rounded=0;orthogonalLoop=1;jettySize=auto;html=1;exitX=0.5;exitY=0;exitDx=0;exitDy=0;entryX=0.5;entryY=1;entryDx=0;entryDy=0;" parent="ctl0Pf9ggWWuzBs3fEdE-3" source="t7neWUMmeDFfK0kkXuAY-5" target="ctl0Pf9ggWWuzBs3fEdE-4" edge="1">
          <mxGeometry relative="1" as="geometry" />
        </mxCell>
        <mxCell id="t7neWUMmeDFfK0kkXuAY-9" style="edgeStyle=orthogonalEdgeStyle;rounded=0;orthogonalLoop=1;jettySize=auto;html=1;exitX=0.5;exitY=0;exitDx=0;exitDy=0;" parent="ctl0Pf9ggWWuzBs3fEdE-3" source="t7neWUMmeDFfK0kkXuAY-5" target="ctl0Pf9ggWWuzBs3fEdE-12" edge="1">
          <mxGeometry relative="1" as="geometry">
            <Array as="points">
              <mxPoint x="440" y="230" />
              <mxPoint x="217" y="230" />
            </Array>
          </mxGeometry>
        </mxCell>
        <mxCell id="t7neWUMmeDFfK0kkXuAY-5" value="Відділ продажів" style="text;html=1;align=center;verticalAlign=middle;whiteSpace=wrap;rounded=0;" parent="ctl0Pf9ggWWuzBs3fEdE-3" vertex="1">
          <mxGeometry x="390" y="465" width="100" height="30" as="geometry" />
        </mxCell>
        <mxCell id="t7neWUMmeDFfK0kkXuAY-11" style="edgeStyle=orthogonalEdgeStyle;rounded=0;orthogonalLoop=1;jettySize=auto;html=1;exitX=0.5;exitY=1;exitDx=0;exitDy=0;" parent="ctl0Pf9ggWWuzBs3fEdE-3" source="t7neWUMmeDFfK0kkXuAY-10" target="ctl0Pf9ggWWuzBs3fEdE-4" edge="1">
          <mxGeometry relative="1" as="geometry" />
        </mxCell>
        <mxCell id="t7neWUMmeDFfK0kkXuAY-10" value="Вимоги до обробки замовлення" style="text;html=1;align=center;verticalAlign=middle;whiteSpace=wrap;rounded=0;" parent="ctl0Pf9ggWWuzBs3fEdE-3" vertex="1">
          <mxGeometry x="333" y="60" width="214" height="30" as="geometry" />
        </mxCell>
        <mxCell id="e8HMfQa918UG6AFryH-M-1" style="edgeStyle=orthogonalEdgeStyle;rounded=0;orthogonalLoop=1;jettySize=auto;html=1;exitX=1;exitY=0.5;exitDx=0;exitDy=0;entryX=0;entryY=0.5;entryDx=0;entryDy=0;" parent="ctl0Pf9ggWWuzBs3fEdE-3" source="t7neWUMmeDFfK0kkXuAY-12" target="t7neWUMmeDFfK0kkXuAY-17" edge="1">
          <mxGeometry relative="1" as="geometry" />
        </mxCell>
        <mxCell id="t7neWUMmeDFfK0kkXuAY-12" value="Доставка товару" style="rounded=0;whiteSpace=wrap;html=1;" parent="ctl0Pf9ggWWuzBs3fEdE-3" vertex="1">
          <mxGeometry x="560" y="130" width="120" height="60" as="geometry" />
        </mxCell>
        <mxCell id="t7neWUMmeDFfK0kkXuAY-16" style="edgeStyle=orthogonalEdgeStyle;rounded=0;orthogonalLoop=1;jettySize=auto;html=1;exitX=0.5;exitY=0;exitDx=0;exitDy=0;" parent="ctl0Pf9ggWWuzBs3fEdE-3" source="t7neWUMmeDFfK0kkXuAY-15" target="t7neWUMmeDFfK0kkXuAY-12" edge="1">
          <mxGeometry relative="1" as="geometry" />
        </mxCell>
        <mxCell id="t7neWUMmeDFfK0kkXuAY-15" value="Кур&#39;єри" style="text;html=1;align=center;verticalAlign=middle;whiteSpace=wrap;rounded=0;" parent="ctl0Pf9ggWWuzBs3fEdE-3" vertex="1">
          <mxGeometry x="540" y="465" width="160" height="30" as="geometry" />
        </mxCell>
        <mxCell id="t7neWUMmeDFfK0kkXuAY-17" value="Доставлений товар" style="text;html=1;align=center;verticalAlign=middle;whiteSpace=wrap;rounded=0;" parent="ctl0Pf9ggWWuzBs3fEdE-3" vertex="1">
          <mxGeometry x="720" y="145" width="120" height="30" as="geometry" />
        </mxCell>
        <mxCell id="t7neWUMmeDFfK0kkXuAY-22" style="edgeStyle=orthogonalEdgeStyle;rounded=0;orthogonalLoop=1;jettySize=auto;html=1;exitX=0.5;exitY=1;exitDx=0;exitDy=0;" parent="ctl0Pf9ggWWuzBs3fEdE-3" source="t7neWUMmeDFfK0kkXuAY-21" target="t7neWUMmeDFfK0kkXuAY-12" edge="1">
          <mxGeometry relative="1" as="geometry" />
        </mxCell>
        <mxCell id="t7neWUMmeDFfK0kkXuAY-21" value="Політика транспортної компанії" style="text;html=1;align=center;verticalAlign=middle;whiteSpace=wrap;rounded=0;" parent="ctl0Pf9ggWWuzBs3fEdE-3" vertex="1">
          <mxGeometry x="525" y="20" width="190" height="30" as="geometry" />
        </mxCell>
        <mxCell id="t7neWUMmeDFfK0kkXuAY-23" value="1" style="text;html=1;align=right;verticalAlign=bottom;whiteSpace=wrap;rounded=0;" parent="ctl0Pf9ggWWuzBs3fEdE-3" vertex="1">
          <mxGeometry x="217" y="130" width="60" height="30" as="geometry" />
        </mxCell>
        <mxCell id="t7neWUMmeDFfK0kkXuAY-24" value="2" style="text;html=1;align=right;verticalAlign=bottom;whiteSpace=wrap;rounded=0;" parent="ctl0Pf9ggWWuzBs3fEdE-3" vertex="1">
          <mxGeometry x="217" y="370" width="60" height="30" as="geometry" />
        </mxCell>
        <mxCell id="t7neWUMmeDFfK0kkXuAY-25" value="3" style="text;html=1;align=right;verticalAlign=bottom;whiteSpace=wrap;rounded=0;" parent="ctl0Pf9ggWWuzBs3fEdE-3" vertex="1">
          <mxGeometry x="440" y="145" width="60" height="30" as="geometry" />
        </mxCell>
        <mxCell id="t7neWUMmeDFfK0kkXuAY-26" value="4" style="text;html=1;align=right;verticalAlign=bottom;whiteSpace=wrap;rounded=0;" parent="ctl0Pf9ggWWuzBs3fEdE-3" vertex="1">
          <mxGeometry x="620" y="160" width="60" height="30" as="geometry" />
        </mxCell>
      </root>
    </mxGraphModel>
  </diagram>
</mxfile>
